<?xml version="1.0" standalone="no"?>
<!DOCTYPE svg PUBLIC "-//W3C//DTD SVG 20010904//EN"
 "http://www.w3.org/TR/2001/REC-SVG-20010904/DTD/svg10.dtd">
<svg version="1.0" xmlns="http://www.w3.org/2000/svg"
 width="112.000000pt" height="112.000000pt" viewBox="0 0 112.000000 112.000000"
 preserveAspectRatio="xMidYMid meet">
<metadata>
Created by potrace 1.14, written by Peter Selinger 2001-2017
</metadata>
<g transform="translate(0.000000,112.000000) scale(0.100000,-0.100000)"
fill="#000000" stroke="none">
<path d="M408 1105 c-144 -40 -260 -130 -315 -245 -40 -83 -55 -130 -42 -130
6 0 7 -6 2 -12 -12 -21 -13 -41 0 -57 10 -12 9 -13 -2 -7 -11 7 -12 -1 -6 -45
7 -56 21 -83 36 -73 12 7 11 44 -1 44 -5 0 -10 5 -10 11 0 5 5 7 10 4 6 -4 11
7 11 24 2 35 1 32 17 85 6 22 8 44 5 49 -3 6 -1 7 4 4 6 -4 16 6 23 22 6 16
20 38 31 50 11 12 17 21 15 21 -3 0 13 17 37 39 91 83 181 122 293 127 125 5
244 -37 332 -120 24 -22 49 -40 54 -38 5 1 6 -2 3 -8 -4 -6 0 -19 8 -28 15
-16 55 -100 64 -132 3 -8 7 -35 9 -60 3 -25 9 -46 13 -48 5 -1 17 -10 27 -18
18 -14 18 -15 -3 -5 -31 15 -31 15 -28 -24 1 -19 -2 -35 -7 -35 -5 0 -7 -21
-4 -46 4 -41 3 -44 -12 -32 -9 7 -13 8 -9 2 3 -6 -3 -25 -13 -42 -11 -17 -15
-34 -10 -37 5 -3 7 -12 4 -20 -4 -8 -10 -12 -15 -9 -5 3 -6 10 -3 16 4 7 2 8
-5 4 -9 -6 -9 -11 -1 -21 8 -9 8 -15 0 -20 -5 -3 -10 0 -10 7 0 9 -3 9 -10 -2
-5 -8 -7 -23 -4 -33 6 -19 -14 -20 -29 -2 -5 6 -6 2 -3 -9 5 -14 2 -17 -11
-12 -11 4 -8 -1 7 -14 14 -11 29 -20 34 -20 6 0 2 6 -9 13 -12 10 -14 16 -7
21 7 4 12 1 12 -6 0 -7 7 -2 16 10 8 12 20 22 26 22 6 0 3 -9 -7 -20 -28 -31
-13 -29 17 2 15 15 22 28 15 28 -12 0 23 29 37 30 5 0 3 -7 -4 -15 -6 -8 -9
-19 -5 -25 3 -5 1 -10 -4 -10 -6 0 -11 -5 -11 -12 0 -9 3 -9 12 0 7 7 13 20
13 30 0 9 6 16 13 14 8 -1 11 2 8 7 -4 5 0 11 6 14 7 2 9 8 5 13 -4 5 -12 2
-16 -5 -5 -8 -11 -9 -15 -3 -6 10 16 24 50 31 4 0 0 9 -7 18 -12 15 -12 16 3
10 12 -4 16 -1 13 13 -2 11 0 22 5 25 5 3 6 13 3 22 -4 9 -2 14 3 10 6 -3 10
4 11 16 1 12 3 32 6 44 4 16 -1 27 -15 37 -11 8 -17 19 -13 25 3 6 0 11 -8 11
-8 0 -18 7 -21 15 -5 14 -3 14 17 0 12 -8 22 -21 22 -27 0 -27 20 -15 21 13 1
22 -1 27 -7 18 -6 -9 -9 -10 -9 -2 0 6 5 15 10 18 6 4 8 10 6 13 -2 4 -7 27
-11 52 -8 53 -13 62 -28 54 -9 -5 -9 -4 0 6 15 16 -1 58 -48 127 -80 117 -164
181 -291 224 -90 30 -221 37 -300 14z m-314 -383 c3 -5 -1 -9 -9 -9 -8 0 -12
4 -9 9 3 4 7 8 9 8 2 0 6 -4 9 -8z m951 -20 c-3 -3 0 -10 5 -17 7 -8 5 -12 -4
-12 -8 0 -13 7 -11 16 1 9 -3 23 -9 31 -10 13 -9 13 7 1 9 -8 15 -16 12 -19z
m-962 -17 c-3 -9 -8 -14 -10 -11 -3 3 -2 9 2 15 9 16 15 13 8 -4z m985 -50
c-3 -3 -9 2 -12 12 -6 14 -5 15 5 6 7 -7 10 -15 7 -18z m-996 -2 c-6 -2 -9
-10 -6 -15 4 -7 2 -8 -5 -4 -13 9 -5 26 12 25 9 0 8 -2 -1 -6z m952 -90 c7 -8
11 -9 37 -12 5 0 7 -5 4 -11 -3 -5 -1 -10 6 -10 7 0 5 -8 -6 -20 -12 -13 -14
-20 -5 -20 10 0 10 -3 0 -15 -7 -8 -15 -13 -19 -11 -4 3 -12 -4 -19 -15 -14
-22 -10 -23 21 -8 21 10 21 10 3 -5 -15 -12 -16 -16 -5 -16 10 -1 9 -4 -4 -11
-15 -9 -16 -13 -5 -27 8 -10 9 -13 1 -9 -6 4 -14 3 -18 -3 -4 -6 -10 -8 -14
-5 -5 2 -13 -7 -20 -21 -6 -14 -16 -22 -21 -19 -8 5 -13 -5 -12 -25 0 -3 -11
-6 -24 -6 -13 -1 -24 2 -24 8 0 5 4 7 9 3 5 -3 19 7 30 21 16 20 18 30 10 40
-9 11 -7 15 5 20 9 3 14 9 12 13 -3 4 -1 13 5 21 7 13 9 13 9 1 0 -11 4 -9 14
5 10 13 11 23 4 31 -7 9 -7 13 1 13 6 0 11 5 11 11 0 5 -4 8 -8 5 -5 -3 -9 1
-9 9 0 18 14 20 19 3 3 -7 7 -6 11 5 3 9 2 17 -3 17 -6 0 -10 5 -10 10 0 6 11
3 25 -6 26 -17 29 -16 19 10 -3 9 -9 14 -14 11 -4 -2 -16 2 -26 10 -10 8 -14
15 -8 15 6 0 14 -3 18 -7z"/>
<path d="M1022 465 c-15 -32 -15 -46 -1 -22 6 9 14 15 19 12 5 -3 8 4 7 15 -2
27 -11 25 -25 -5z"/>
<path d="M997 396 c-4 -9 -12 -14 -17 -11 -6 4 -10 3 -9 -2 4 -22 -2 -34 -13
-27 -10 5 -10 4 -1 -6 6 -7 9 -20 6 -29 -4 -9 -3 -13 1 -9 7 5 13 28 15 52 1
5 7 3 15 -3 10 -8 16 -9 21 -1 3 5 3 10 -1 10 -3 0 0 8 7 17 8 9 9 14 2 10 -6
-4 -13 -2 -15 5 -3 7 -7 5 -11 -6z m10 -21 c0 -8 -4 -12 -9 -9 -5 3 -6 10 -3
15 9 13 12 11 12 -6z"/>
<path d="M374 827 c-65 -56 -10 -203 68 -184 63 16 74 134 16 182 -37 31 -50
31 -84 2z"/>
<path d="M630 837 c-58 -29 -75 -127 -29 -175 28 -31 62 -28 93 9 36 43 39
106 8 149 -23 30 -39 34 -72 17z"/>
<path d="M227 636 c-34 -34 10 -126 60 -126 29 0 53 37 46 72 -11 57 -72 88
-106 54z"/>
<path d="M761 629 c-41 -44 -27 -119 22 -119 49 0 90 80 63 122 -15 24 -61 23
-85 -3z"/>
<path d="M494 575 c-33 -14 -131 -139 -143 -184 -15 -53 18 -110 65 -111 12 0
38 14 59 30 45 36 74 38 112 7 44 -37 77 -41 108 -14 37 32 37 84 -1 139 -16
22 -39 56 -51 74 -41 60 -95 82 -149 59z"/>
<path d="M66 511 c4 -9 7 -24 8 -33 0 -10 4 -18 9 -18 4 0 5 -5 1 -12 -5 -7
-3 -8 6 -3 10 6 12 4 7 -8 -3 -10 -2 -17 3 -17 13 0 13 27 0 35 -6 4 -10 14
-9 23 3 35 -1 49 -16 49 -11 0 -14 -6 -9 -16z"/>
<path d="M100 406 c0 -2 7 -9 15 -16 13 -11 14 -10 9 4 -5 14 -24 23 -24 12z"/>
<path d="M940 235 c-7 -9 -10 -18 -7 -21 3 -3 10 4 17 15 13 25 8 27 -10 6z"/>
<path d="M806 214 c18 -14 17 -15 -11 -10 -25 5 -27 4 -12 -5 21 -12 51 -4 42
11 -3 5 -1 10 5 10 6 0 15 -11 20 -25 7 -17 14 -23 26 -18 11 4 22 -1 30 -12
8 -10 14 -14 14 -8 0 18 -29 36 -46 29 -11 -4 -15 -2 -11 8 6 15 -14 28 -52
32 -22 3 -23 2 -5 -12z"/>
<path d="M421 194 c0 -11 3 -14 6 -6 3 7 2 16 -1 19 -3 4 -6 -2 -5 -13z"/>
<path d="M452 194 c2 -8 7 -14 12 -14 5 1 13 -4 18 -12 8 -10 9 -10 5 2 -2 8
-10 14 -17 12 -8 -2 -10 3 -7 13 4 8 2 15 -4 15 -6 0 -9 -7 -7 -16z"/>
<path d="M490 200 c0 -5 5 -10 11 -10 5 0 7 5 4 10 -3 6 -8 10 -11 10 -2 0 -4
-4 -4 -10z"/>
<path d="M536 196 c5 -13 4 -17 -3 -13 -6 4 -18 -4 -27 -18 -11 -17 -13 -26
-4 -31 7 -4 8 -3 4 4 -4 7 -2 12 3 12 6 0 11 7 11 16 0 8 4 13 9 9 15 -9 25
15 12 28 -9 9 -10 7 -5 -7z"/>
<path d="M735 199 c-4 -6 -4 -13 -1 -16 10 -10 55 -10 49 0 -3 5 -14 6 -25 4
-14 -4 -18 -2 -14 9 6 16 0 19 -9 3z"/>
<path d="M910 200 c0 -6 7 -10 15 -10 8 0 15 2 15 4 0 2 -7 6 -15 10 -8 3 -15
1 -15 -4z"/>
<path d="M572 192 c2 -8 7 -13 12 -12 5 1 13 -4 18 -12 8 -11 9 -11 6 0 -2 8
-7 13 -12 12 -5 -1 -13 4 -18 12 -8 11 -9 11 -6 0z"/>
<path d="M375 181 c-3 -5 0 -13 6 -17 7 -4 9 -3 5 4 -3 6 2 13 11 15 16 4 16
5 1 6 -9 0 -19 -3 -23 -8z"/>
<path d="M659 183 c-1 -5 -1 -11 0 -15 2 -13 -17 -9 -21 4 -3 8 -6 7 -10 -4
-5 -11 0 -15 15 -14 13 1 21 8 19 15 -2 8 3 11 13 8 8 -4 15 -2 15 3 0 12 -29
14 -31 3z"/>
<path d="M830 185 c0 -5 5 -17 10 -25 5 -8 10 -10 10 -5 0 6 -5 17 -10 25 -5
8 -10 11 -10 5z"/>
<path d="M151 170 c0 -8 4 -22 9 -30 12 -18 12 -2 0 25 -6 13 -9 15 -9 5z"/>
<path d="M177 159 c7 -7 15 -10 18 -7 3 3 -2 9 -12 12 -14 6 -15 5 -6 -5z"/>
<path d="M553 156 c0 -8 6 -12 14 -9 7 3 10 9 7 14 -8 14 -21 11 -21 -5z"/>
<path d="M720 150 c6 -11 12 -20 14 -20 2 0 2 9 -1 20 -3 11 -9 20 -15 20 -5
0 -4 -9 2 -20z"/>
<path d="M800 159 c0 -5 5 -7 10 -4 6 3 10 8 10 11 0 2 -4 4 -10 4 -5 0 -10
-5 -10 -11z"/>
<path d="M679 158 c-5 -13 -5 -60 0 -63 4 -2 7 12 7 31 0 29 -3 42 -7 32z"/>
<path d="M595 133 c1 -10 -1 -23 -6 -28 -5 -7 -1 -11 11 -11 13 0 16 5 11 16
-5 8 -6 21 -4 28 3 6 0 12 -5 12 -6 0 -9 -8 -7 -17z"/>
<path d="M210 120 c0 -5 5 -10 10 -10 6 0 10 5 10 10 0 6 -4 10 -10 10 -5 0
-10 -4 -10 -10z"/>
<path d="M256 115 c-9 -26 -7 -32 5 -12 6 10 9 21 6 23 -2 3 -7 -2 -11 -11z"/>
<path d="M704 110 c0 -13 4 -16 10 -10 7 7 7 13 0 20 -6 6 -10 3 -10 -10z"/>
<path d="M740 120 c-8 -5 -10 -10 -5 -10 6 0 17 5 25 10 8 5 11 10 5 10 -5 0
-17 -5 -25 -10z"/>
<path d="M817 116 c-4 -10 1 -12 14 -9 23 6 24 9 5 16 -8 3 -17 0 -19 -7z"/>
<path d="M518 103 c7 -3 16 -2 19 1 4 3 -2 6 -13 5 -11 0 -14 -3 -6 -6z"/>
<path d="M553 95 c0 -8 4 -12 9 -9 5 3 6 10 3 15 -9 13 -12 11 -12 -6z"/>
<path d="M454 89 c-3 -6 -2 -15 3 -20 5 -5 9 -1 9 11 0 23 -2 24 -12 9z"/>
<path d="M493 85 c0 -8 3 -13 5 -10 3 3 10 0 17 -5 8 -7 12 -5 12 5 0 8 -3 13
-5 10 -3 -3 -10 0 -17 5 -8 7 -12 5 -12 -5z"/>
<path d="M637 90 c7 -8 20 -15 29 -16 9 -1 13 1 9 4 -4 4 -10 7 -13 7 -4 0
-14 4 -22 9 -12 7 -13 6 -3 -4z"/>
<path d="M365 79 c-3 -4 2 -6 10 -5 21 3 28 13 10 13 -9 0 -18 -4 -20 -8z"/>
<path d="M545 59 c-3 -4 2 -6 10 -5 21 3 28 13 10 13 -9 0 -18 -4 -20 -8z"/>
<path d="M440 40 c-9 -6 -10 -10 -3 -10 6 0 15 5 18 10 8 12 4 12 -15 0z"/>
<path d="M650 39 c0 -5 5 -7 10 -4 6 3 10 8 10 11 0 2 -4 4 -10 4 -5 0 -10 -5
-10 -11z"/>
<path d="M550 26 c0 -2 7 -7 16 -10 8 -3 12 -2 9 4 -6 10 -25 14 -25 6z"/>
</g>
</svg>
